<svg xmlns="http://www.w3.org/2000/svg" xmlns:xlink="http://www.w3.org/1999/xlink" width="500"
  zoomAndPan="magnify" viewBox="0 0 375 374.999991" height="500" preserveAspectRatio="xMidYMid meet"
  version="1.0">
  <defs>
    <clipPath id="b1b889fb1a">
      <path d="M 109 115 L 287 115 L 287 304.292969 L 109 304.292969 Z M 109 115 "
        clip-rule="nonzero" />
    </clipPath>
    <clipPath id="ac6cac336a">
      <path d="M 70 71.042969 L 304.726562 71.042969 L 304.726562 275 L 70 275 Z M 70 71.042969 "
        clip-rule="nonzero" />
    </clipPath>
  </defs>
  <g clip-path="url(#b1b889fb1a)">
    <path fill="#522FFF"
      d="M 109.855469 274.558594 L 149.96875 204.90625 L 187.347656 269.824219 L 263.398438 138.890625 L 254.476562 133.722656 L 270.640625 124.367188 L 286.800781 115.011719 L 286.800781 152.4375 L 278.328125 147.53125 L 187.347656 304.292969 L 149.96875 239.371094 L 129.707031 274.558594 Z M 109.855469 274.558594 "
      fill-opacity="1" fill-rule="evenodd" />
  </g>
  <g clip-path="url(#ac6cac336a)">
    <path fill="#4A2D76"
      d="M 128.753906 172.800781 L 70.164062 274.558594 L 90.011719 274.558594 L 99.9375 257.328125 L 149.96875 170.433594 L 177.425781 218.113281 L 187.347656 235.351562 L 197.269531 218.113281 L 224.726562 170.433594 L 234.652344 153.195312 L 224.726562 135.960938 L 197.269531 88.277344 L 187.347656 71.042969 L 149.96875 135.960938 L 140.046875 153.199219 Z M 254.566406 222.253906 L 224.210938 274.558594 L 304.535156 274.558594 L 293.359375 255.152344 L 264.53125 205.089844 Z M 214.804688 153.195312 L 187.347656 200.882812 L 159.886719 153.199219 L 187.347656 105.511719 Z M 214.804688 153.195312 "
      fill-opacity="1" fill-rule="evenodd" />
  </g>
</svg>
